<?xml version="1.0" standalone="no"?>
<!DOCTYPE svg PUBLIC "-//W3C//DTD SVG 20010904//EN"
 "http://www.w3.org/TR/2001/REC-SVG-20010904/DTD/svg10.dtd">
<svg version="1.0" xmlns="http://www.w3.org/2000/svg"
 width="426.000000pt" height="426.000000pt" viewBox="0 0 426.000000 426.000000"
 preserveAspectRatio="xMidYMid meet">

<g transform="translate(0.000000,426.000000) scale(0.100000,-0.100000)"
fill="#FFFFFF" stroke="none">
<path d="M1745 4099 c-254 -27 -529 -119 -735 -246 -211 -131 -371 -279 -523
-483 l-26 -35 105 -1 104 -2 50 58 c161 186 444 372 692 454 196 66 288 80
518 80 230 0 322 -14 519 -80 251 -83 531 -268 692 -456 l47 -54 98 1 c74 1
98 4 96 14 -9 44 -205 261 -320 354 -369 301 -848 445 -1317 396z"/>
<path d="M1581 3784 c-29 -8 -65 -23 -80 -34 -15 -10 -66 -37 -113 -59 -47
-22 -88 -47 -91 -54 -3 -8 -20 -22 -39 -31 -64 -33 -152 -101 -171 -133 -11
-19 -20 -60 -23 -99 -3 -37 -7 -71 -9 -75 -7 -10 41 -233 58 -271 8 -18 30
-66 48 -106 30 -68 31 -73 15 -85 -16 -12 -17 -19 -5 -78 6 -35 18 -75 25 -89
29 -56 64 -143 64 -159 0 -22 19 -41 41 -41 15 0 26 -14 74 -91 6 -9 23 -36
39 -60 31 -46 49 -105 60 -199 l6 -55 -57 -35 c-32 -19 -69 -41 -83 -48 -14
-7 -54 -30 -90 -52 -68 -42 -198 -107 -335 -167 -178 -78 -224 -102 -271 -144
-27 -24 -64 -56 -82 -70 l-34 -26 70 -104 c235 -351 606 -596 1029 -679 106
-21 373 -37 420 -25 13 3 43 35 72 78 63 91 89 123 93 117 2 -3 19 -39 38 -80
18 -41 34 -76 35 -78 1 -1 37 7 79 18 411 113 785 413 980 786 l37 70 -33 66
c-30 58 -39 68 -88 91 -106 51 -191 87 -248 106 -122 42 -182 64 -317 117 -77
30 -152 61 -167 69 -14 8 -32 15 -38 15 -7 0 -30 16 -51 35 -28 25 -49 35 -71
35 l-32 0 27 -28 c15 -15 27 -37 27 -48 0 -26 -53 -107 -87 -134 -29 -23 -63
-26 -63 -7 0 7 -13 38 -29 68 -39 72 -46 132 -27 222 8 39 17 88 19 108 3 21
12 52 21 70 9 17 16 38 16 44 0 7 7 35 15 61 8 27 19 67 25 90 7 29 18 44 36
53 23 10 25 13 11 24 -21 16 -29 117 -10 124 7 3 19 0 27 -6 10 -8 16 -8 26 4
8 10 9 15 1 15 -6 0 -8 11 -5 29 6 28 -9 69 -30 83 -6 4 -22 8 -35 8 -16 0
-21 4 -18 15 4 8 2 17 -2 20 -15 9 -19 54 -6 65 9 7 10 23 5 53 -5 23 -11 86
-13 140 -3 56 -11 105 -18 113 -10 12 -10 17 -1 23 8 5 6 11 -6 20 -15 10 -18
23 -14 61 4 45 3 48 -17 43 -17 -4 -21 -1 -21 19 0 39 -19 85 -35 85 -8 0 -15
-5 -15 -10 0 -5 -7 -7 -15 -3 -8 3 -15 1 -15 -5 0 -6 -23 10 -51 35 -28 25
-59 46 -69 46 -10 0 -23 7 -30 15 -7 8 -9 15 -4 15 10 0 -19 21 -68 49 -39 21
-144 49 -213 56 -22 2 -64 -3 -94 -11z m384 -334 c4 -6 11 -7 17 -4 7 5 9 1 5
-9 -4 -10 -2 -17 4 -17 6 0 8 -7 5 -16 -4 -11 -2 -15 8 -11 18 7 28 -3 17 -17
-6 -7 -6 -30 0 -58 12 -55 60 -103 111 -113 26 -5 37 -15 50 -43 41 -91 57
-129 69 -164 7 -20 15 -35 19 -33 6 4 5 -23 -6 -157 -6 -77 -9 -86 -25 -83
-11 2 -19 -2 -19 -8 0 -7 -7 -4 -15 7 -8 10 -24 19 -35 20 -15 1 -28 15 -44
46 -15 30 -41 57 -81 85 -32 23 -60 46 -62 52 -4 11 102 113 118 113 21 0 7
31 -18 41 -40 15 -66 41 -52 50 22 13 -34 32 -115 39 -84 8 -96 15 -96 65 0
22 9 38 30 57 24 21 28 30 22 49 -12 31 15 99 39 99 10 0 21 5 24 10 8 13 22
13 30 0z m191 -143 c-2 -9 -1 -15 4 -12 4 3 8 -13 8 -35 0 -22 -3 -40 -9 -40
-5 0 -9 5 -9 10 0 6 -6 10 -13 10 -19 0 -80 67 -73 79 4 6 16 11 26 11 10 0
22 4 25 10 10 16 46 -13 41 -33z m-390 -352 c18 -14 35 -25 39 -25 13 0 76
-72 72 -83 -2 -7 -20 -13 -40 -15 -19 -2 -41 -10 -47 -18 -19 -22 -44 -17 -76
17 -23 24 -29 39 -29 73 0 42 17 76 38 76 5 0 25 -11 43 -25z m488 -260 c-4
-8 -8 -15 -10 -15 -2 0 -4 7 -4 15 0 8 4 15 10 15 5 0 7 -7 4 -15z m-389 -65
c-4 -6 -13 -9 -21 -6 -8 3 -14 1 -14 -4 0 -6 -11 -10 -25 -10 -14 0 -25 4 -25
10 0 12 32 28 47 23 6 -2 14 1 18 7 5 8 11 8 17 2 6 -6 7 -15 3 -22z m35 20
c0 -5 -4 -10 -10 -10 -5 0 -10 5 -10 10 0 6 5 10 10 10 6 0 10 -4 10 -10z
m370 -4 c0 -3 -4 -8 -10 -11 -5 -3 -10 -1 -10 4 0 6 5 11 10 11 6 0 10 -2 10
-4z m-327 -51 c-2 -5 -10 -9 -18 -9 -8 1 -22 2 -30 3 -8 0 -15 6 -15 12 0 6
14 9 33 7 17 -2 31 -7 30 -13z m72 -121 c9 -4 15 -1 15 7 0 7 3 10 6 6 4 -3
-9 -22 -27 -41 -30 -32 -38 -35 -77 -32 -24 2 -48 8 -54 14 -18 18 2 34 32 27
22 -5 33 -1 47 14 10 12 23 19 30 16 7 -3 20 -8 28 -11z m520 -1194 c0 -11 -9
-14 -36 -12 -26 2 -38 -1 -42 -12 -5 -12 0 -16 17 -16 35 0 56 -10 56 -27 0
-11 -10 -14 -37 -11 -30 2 -38 -1 -41 -15 -3 -14 4 -17 33 -17 23 0 38 -5 42
-15 9 -24 1 -26 -61 -19 l-58 7 7 71 c4 39 9 75 12 79 3 4 28 7 56 5 38 -2 52
-7 52 -18z m-278 -31 c20 -63 26 -109 14 -109 -12 0 -25 27 -37 75 l-7 30 -23
-52 c-26 -58 -51 -83 -40 -39 4 15 16 52 27 82 24 65 47 69 66 13z m-477 -55
c0 -76 -2 -85 -17 -82 -15 3 -19 16 -21 72 -3 78 1 96 23 96 12 0 15 -15 15
-86z m230 72 c0 -10 -13 -16 -37 -18 -50 -4 -55 -26 -6 -30 51 -4 54 -33 3
-33 -25 0 -36 -5 -38 -17 -2 -13 5 -17 35 -20 24 -2 39 -9 41 -18 2 -12 -9
-15 -55 -13 l-58 1 4 74 c2 40 8 76 15 80 6 4 30 8 54 8 30 0 42 -4 42 -14z
m-430 -66 c0 -52 2 -60 19 -60 30 0 51 -11 51 -25 0 -10 -14 -12 -57 -8 -32 3
-60 7 -62 9 -2 1 0 35 4 73 6 61 10 71 26 71 17 0 19 -8 19 -60z m-140 25 c0
-11 -11 -15 -40 -15 -30 0 -40 -4 -40 -16 0 -10 6 -13 19 -9 24 7 51 -4 51
-21 0 -9 -12 -14 -35 -14 -24 0 -35 -5 -35 -15 0 -11 11 -15 40 -15 29 0 40
-4 40 -15 0 -11 -11 -15 -37 -15 -21 0 -48 -3 -61 -6 -23 -7 -23 -7 -16 67 3
41 9 77 11 82 2 4 26 7 54 7 37 0 49 -4 49 -15z m-230 -20 c7 -8 10 -25 6 -39
-3 -14 -2 -28 4 -31 16 -10 12 -40 -7 -57 -10 -9 -40 -19 -66 -22 l-48 -7 3
77 c3 74 4 79 28 85 42 12 67 10 80 -6z"/>
<path d="M1143 1183 c-7 -2 -13 -12 -13 -20 0 -10 6 -13 16 -9 9 3 20 6 25 6
5 0 9 7 9 15 0 15 -14 18 -37 8z"/>
<path d="M1143 1123 c-7 -2 -13 -11 -13 -19 0 -11 8 -14 28 -12 16 2 27 9 27
18 0 15 -21 22 -42 13z"/>
<path d="M2314 3028 c-19 -22 -19 -22 11 -53 17 -17 35 -39 42 -50 10 -17 12
-12 12 33 1 86 -25 115 -65 70z"/>
</g>
</svg>
